# Blender 4.4.1
# www.blender.org
mtllib player.mtl
o Body
v 0.247043 0.252034 0.231125
v 0.175311 -0.195280 0.155341
v -0.247861 0.252034 0.230247
v -0.175861 -0.195280 0.154718
v 0.247861 0.252034 -0.230247
v 0.175861 -0.195280 -0.154718
v -0.247043 0.252034 -0.231125
v -0.175311 -0.195280 -0.155341
v 0.200630 -0.195280 0.000356
v -0.386198 0.291612 -0.000685
v -0.200630 -0.195280 -0.000356
v 0.396623 0.291612 0.000703
v 0.000309 -0.195280 -0.174398
v -0.000990 0.252034 0.557894
v 0.000818 0.446391 -0.461453
v -0.000650 -0.261744 0.366379
v -0.000000 -0.412569 -0.000000
v 0.098765 0.505172 0.000175
v 0.158905 0.446391 -0.461173
v 0.110974 -0.261744 0.366577
v 0.111933 -0.195280 -0.174200
v 0.157336 0.252034 0.423640
v 0.111624 -0.412569 0.000198
v 0.270569 0.431321 0.000480
v -0.111315 -0.195280 -0.174596
v -0.159076 0.252034 0.557613
v -0.111624 -0.412569 -0.000198
v -0.260144 0.431321 -0.000461
v -0.157268 0.446391 -0.461734
v -0.112274 -0.261744 0.366181
v -0.200785 -0.195280 0.086843
v 0.396404 0.291612 0.124199
v 0.200475 -0.195280 0.087555
v -0.386417 0.291612 0.122810
v -0.000458 0.431321 0.258029
v -0.000155 -0.412569 0.087199
v 0.111469 -0.412569 0.087397
v 0.270350 0.431321 0.123975
v -0.260363 0.431321 0.123034
v -0.111779 -0.412569 0.087001
v 0.200785 -0.195280 -0.086843
v -0.385979 0.291612 -0.124180
v -0.200476 -0.195280 -0.087555
v 0.396842 0.291612 -0.122792
v 0.000155 -0.412569 -0.087199
v 0.000599 0.625678 -0.337958
v 0.271169 0.625678 -0.337479
v 0.111779 -0.412569 -0.087001
v -0.111469 -0.412569 -0.087397
v -0.259545 0.625678 -0.338420
v 0.283629 0.005044 0.288723
v -0.379593 0.005044 -0.420485
v -0.284652 0.005044 0.287715
v 0.372226 0.005044 -0.413863
v 0.373763 0.005044 0.000663
v -0.373764 0.005044 -0.000663
v 0.283629 -0.056703 0.288723
v -0.379593 -0.056703 -0.420485
v 0.157575 0.005044 0.288499
v 0.158598 0.005044 -0.287939
v -0.157576 0.005044 -0.288499
v -0.158598 0.005044 0.287939
v -0.374074 0.005044 0.174656
v 0.373452 0.005044 0.175982
v 0.461649 0.005044 -0.300803
v -0.469416 0.005044 -0.307743
v -0.379593 0.128539 -0.420485
v 0.283629 0.128539 0.288723
v -0.284652 0.128539 0.287715
v 0.372226 0.128539 -0.413863
v 0.373763 0.128539 0.000663
v -0.475821 0.128539 -0.000844
v -0.000824 0.128539 0.464589
v 0.000511 0.128539 -0.288219
v 0.157263 0.128539 0.464869
v 0.158598 0.128539 -0.287939
v -0.157576 0.128539 -0.288499
v -0.158911 0.128539 0.464309
v -0.374074 0.128539 0.174656
v 0.373452 0.128539 0.175982
v 0.461649 0.128539 -0.300803
v -0.469416 0.128539 -0.307743
v 0.283629 -0.118451 0.288723
v -0.284652 -0.118451 0.287715
v 0.372226 -0.118451 -0.413863
v 0.373763 -0.118451 0.000663
v -0.373763 -0.118451 -0.000663
v -0.000852 -0.184915 0.480199
v 0.000511 -0.118451 -0.288219
v 0.157235 -0.184915 0.480480
v 0.158598 -0.118451 -0.287939
v -0.157576 -0.118451 -0.288499
v -0.158938 -0.184915 0.479919
v -0.374052 -0.118451 0.162118
v 0.373475 -0.118451 0.163444
v 0.461626 -0.118451 -0.288266
v -0.469439 -0.118451 -0.295205
v -0.379593 -0.118451 -0.420485
v 0.128012 0.483262 0.000227
v 0.000177 0.483262 -0.100001
v 0.128189 0.483262 -0.099774
v -0.128012 0.483262 -0.000227
v -0.127834 0.483262 -0.100228
v -0.000177 0.483262 0.100001
v 0.127834 0.483262 0.100228
v -0.128189 0.483262 0.099774
v -0.000000 0.505172 -0.000000
v 0.000137 0.505172 -0.077154
v 0.098902 0.505172 -0.076979
v -0.098765 0.505172 -0.000175
v -0.098628 0.505172 -0.077329
v -0.000137 0.505172 0.077154
v 0.098628 0.505172 0.077329
v -0.098902 0.505172 0.076979
v -0.000514 0.127484 0.289579
v 0.000519 0.127484 -0.292683
v 0.157573 0.127484 0.289859
v 0.157281 0.003988 0.454743
v 0.158606 0.127484 -0.292403
v 0.158606 0.003988 -0.292403
v -0.157568 0.127484 -0.292964
v -0.157568 0.003988 -0.292964
v -0.158600 0.127484 0.289298
v -0.158893 0.003988 0.454182
v -0.000806 -0.119506 0.454462
v 0.000519 -0.119506 -0.292683
v 0.157281 -0.119506 0.454743
v 0.158606 -0.119506 -0.292403
v -0.157568 -0.119506 -0.292964
v -0.158893 -0.119506 0.454182
v -0.284652 -0.056703 0.287715
v 0.372226 -0.056703 -0.413863
v 0.373763 -0.056703 0.000663
v -0.373763 -0.056703 -0.000663
v 0.157575 -0.056703 0.288499
v 0.158598 -0.056703 -0.287939
v -0.157576 -0.056703 -0.288499
v -0.158598 -0.056703 0.287939
v -0.374074 -0.056703 0.174656
v 0.373452 -0.056703 0.175982
v 0.461649 -0.056703 -0.300803
v -0.469416 -0.056703 -0.307743
v -0.000806 -0.057759 0.454462
v 0.000519 -0.057759 -0.292683
v 0.157281 -0.057759 0.454743
v 0.158606 -0.057759 -0.292403
v -0.157568 -0.057759 -0.292964
v -0.158893 -0.057759 0.454182
v -0.078225 0.446391 -0.461593
v -0.056462 -0.261744 0.366280
v -0.055503 -0.195280 -0.174497
v -0.080033 0.252034 0.557754
v -0.055812 -0.412569 -0.000099
v -0.055967 -0.412569 0.087100
v -0.079501 0.431321 0.257889
v -0.078444 0.625678 -0.338099
v -0.055657 -0.412569 -0.087298
v -0.079867 0.128539 0.464449
v -0.078532 0.128539 -0.288359
v -0.078532 -0.118451 -0.288359
v -0.079895 -0.184915 0.480059
v -0.064183 0.483262 0.099888
v -0.063829 0.483262 -0.100115
v -0.049382 0.505172 -0.000088
v -0.049519 0.505172 0.077066
v -0.049245 0.505172 -0.077241
v -0.079849 0.003988 0.454322
v -0.078524 0.003988 -0.292823
v -0.079557 0.127484 0.289438
v -0.078524 0.127484 -0.292823
v -0.078524 -0.119506 -0.292823
v -0.079849 -0.119506 0.454322
v -0.078524 -0.057759 -0.292823
v -0.079849 -0.057759 0.454322
v 0.283629 0.066791 0.288723
v -0.284652 0.066791 0.287715
v 0.372226 0.066791 -0.413863
v 0.373763 0.066791 0.000663
v -0.373764 0.066791 -0.000663
v 0.157575 0.066791 0.288499
v 0.158598 0.066791 -0.287939
v -0.157576 0.066791 -0.288499
v -0.158598 0.066791 0.287939
v -0.374074 0.066791 0.174656
v 0.373452 0.066791 0.175982
v 0.461649 0.066791 -0.300803
v -0.469416 0.066791 -0.307743
v -0.379593 0.066791 -0.420485
v -0.000514 0.065736 0.289579
v 0.000519 0.065736 -0.292683
v 0.157573 0.065736 0.289859
v 0.158606 0.065736 -0.292403
v -0.157568 0.065736 -0.292964
v -0.158600 0.065736 0.289298
v -0.078524 0.065736 -0.292823
v -0.079557 0.065736 0.289438
v 0.056121 -0.195280 -0.174299
v 0.078053 0.252034 0.558034
v 0.055812 -0.412569 0.000099
v 0.079861 0.446391 -0.461313
v 0.055162 -0.261744 0.366478
v 0.055657 -0.412569 0.087298
v 0.078585 0.431321 0.258169
v 0.079642 0.625678 -0.337818
v 0.055967 -0.412569 -0.087100
v 0.079554 0.128539 -0.288079
v 0.078219 0.128539 0.464729
v 0.078191 -0.184915 0.480339
v 0.079554 -0.118451 -0.288079
v 0.063828 0.483262 0.100115
v 0.064183 0.483262 -0.099888
v 0.049382 0.505172 0.000088
v 0.049245 0.505172 0.077241
v 0.049519 0.505172 -0.077066
v 0.079562 0.003988 -0.292543
v 0.078237 0.003988 0.454602
v 0.079562 0.127484 -0.292543
v 0.078529 0.127484 0.289719
v 0.078237 -0.119506 0.454602
v 0.079562 -0.119506 -0.292543
v 0.078237 -0.057759 0.454602
v 0.079562 -0.057759 -0.292543
v 0.078529 0.065736 0.289719
v 0.079562 0.065736 -0.292543
v -0.000517 0.065483 0.291642
v -0.000810 0.003736 0.456525
v 0.000519 0.065483 -0.292878
v 0.000519 0.003736 -0.292878
v -0.078524 0.003736 -0.293019
v 0.078233 0.003736 0.456666
v -0.000810 -0.058012 0.456525
v 0.000519 -0.058012 -0.292878
v 0.078233 -0.058012 0.456666
v -0.078524 -0.058012 -0.293019
v -0.079853 0.003736 0.456385
v -0.079853 -0.058012 0.456385
v -0.078524 0.065483 -0.293019
v -0.079560 0.065483 0.291502
v 0.078526 0.065483 0.291782
v 0.079562 0.003736 -0.292738
v 0.079562 -0.058012 -0.292738
v 0.079562 0.065483 -0.292738
vn -0.6340 -0.2330 -0.7374
vn -0.3806 0.8736 -0.3033
vn -0.4024 0.6098 -0.6827
vn -0.4583 -0.8620 0.2166
vn -0.9062 -0.3439 0.2459
vn -0.9136 -0.3741 0.1593
vn -0.7249 0.4562 0.5162
vn 0.6932 0.4630 0.5523
vn 0.9843 -0.0056 0.1766
vn 0.9935 -0.0763 0.0849
vn 0.9573 0.0758 0.2791
vn -0.4954 -0.8687 -0.0009
vn -0.9130 -0.3741 -0.1625
vn -0.4012 -0.7781 -0.4833
vn -0.9158 0.2971 0.2703
vn -0.9123 0.3844 0.1416
vn -0.8613 0.0936 0.4994
vn -0.7269 0.6555 0.2046
vn -0.7425 0.6699 -0.0013
vn -0.2753 0.9524 0.1308
vn -0.3658 0.9307 -0.0006
vn -0.0000 -1.0000 -0.0000
vn 0.0010 -0.8284 -0.5602
vn 0.3077 -0.5733 0.7594
vn -0.0014 -0.6028 0.7979
vn 0.2347 -0.3039 0.9233
vn -0.0008 -0.8798 0.4753
vn -0.0004 -0.9695 0.2451
vn 0.0016 -0.4786 -0.8781
vn 0.0015 0.5673 -0.8235
vn 0.6093 -0.2536 -0.7513
vn 0.9054 -0.3439 0.2491
vn 0.4575 -0.8620 0.2183
vn 0.9130 -0.3741 0.1625
vn 0.7231 0.4562 0.5187
vn 0.9254 -0.3791 0.0016
vn 0.4029 -0.7781 -0.4819
vn 0.9136 -0.3741 -0.1593
vn 0.7425 0.6699 0.0013
vn 0.4050 0.6099 -0.6812
vn -0.0009 0.8581 0.5135
vn -0.1708 0.8649 0.4720
vn -0.0663 0.8640 0.4992
vn -0.0009 0.8583 0.5132
vn 0.8983 0.1334 0.4186
vn 0.4954 -0.8687 0.0009
vn 0.1962 0.8415 0.5034
vn 0.1801 0.8223 0.5398
vn -0.9613 0.0889 0.2607
vn -0.6952 0.4630 0.5499
vn 0.9903 -0.1388 0.0018
vn -0.9254 -0.3791 -0.0016
vn -0.0833 0.9249 0.3710
vn 0.0356 0.8663 0.4983
vn -0.1272 -0.3693 -0.9205
vn 0.0016 -0.3724 -0.9281
vn 0.5862 -0.3936 -0.7081
vn 0.1305 -0.3693 -0.9201
vn 0.7987 0.5797 0.1611
vn 0.7840 0.6108 0.1108
vn -0.5837 -0.3936 -0.7102
vn 0.3956 0.8635 -0.3129
vn -0.8795 0.4758 -0.0116
vn -0.8815 0.4718 -0.0184
vn -0.8107 0.5389 0.2290
vn -0.7954 0.5984 0.0966
vn -0.9886 -0.0000 0.1509
vn -0.9544 0.0283 0.2973
vn -0.9881 0.0020 0.1536
vn 0.7843 -0.0000 -0.6203
vn 0.9897 -0.0000 0.1433
vn 1.0000 -0.0000 0.0018
vn 0.9893 0.0019 0.1459
vn -0.7843 -0.0000 0.6203
vn -1.0000 -0.0000 -0.0018
vn 0.5110 -0.0000 -0.8596
vn -0.0000 -1.0000 0.0060
vn -0.0018 -0.0000 1.0000
vn -0.0016 0.4715 0.8819
vn 0.2421 0.3291 0.9127
vn -0.0004 -0.9732 0.2300
vn 0.9600 -0.0000 0.2799
vn 0.9597 0.0263 0.2798
vn 0.7821 -0.0000 0.6231
vn -0.1574 0.3180 0.9349
vn -0.5078 -0.0000 -0.8615
vn -0.7821 -0.0000 -0.6231
vn -0.5499 -0.8081 0.2110
vn -0.9816 -0.1022 0.1611
vn -0.8634 -0.4614 0.2041
vn 0.2681 -0.5501 0.7909
vn 0.1948 -0.4010 0.8951
vn -0.9414 -0.3187 0.1106
vn -0.3462 -0.7811 0.5196
vn -0.3030 -0.3555 0.8842
vn -0.0014 -0.5786 0.8156
vn -0.2160 -0.9731 -0.0802
vn 0.1550 -0.8470 -0.5085
vn -0.8107 -0.5823 0.0607
vn 0.3537 -0.9261 0.1313
vn 0.3797 -0.9232 0.0599
vn 0.3878 -0.9208 0.0418
vn 0.4056 -0.9140 0.0007
vn -0.4056 -0.9140 -0.0007
vn -0.3865 -0.9212 0.0437
vn -0.0010 -0.8289 0.5595
vn 0.0010 -0.8289 -0.5595
vn 0.8105 -0.5823 0.0636
vn -0.1532 -0.8470 -0.5091
vn -0.3541 -0.9261 0.1300
vn 0.2229 -0.9714 -0.0819
vn -0.3781 -0.9237 0.0627
vn 0.5996 0.8003 0.0011
vn -0.5996 0.8003 -0.0011
vn -0.0012 0.7218 0.6921
vn 0.0699 0.9410 0.3312
vn 0.1364 0.9277 0.3476
vn -0.0006 0.9500 0.3122
vn 0.2527 0.9578 0.1374
vn 0.0827 0.9280 0.3633
vn 0.3423 0.9396 0.0006
vn -0.0737 0.9405 0.3316
vn -0.0000 1.0000 -0.0000
vn 0.0012 0.7218 -0.6921
vn -0.0015 0.5698 0.8218
vn 0.0018 -0.0000 -1.0000
vn -0.0002 0.9926 0.1217
vn 1.0000 -0.0000 0.0017
vn -0.0016 0.3701 0.9290
vn -0.0017 0.3662 0.9306
vn 0.0004 0.9732 -0.2300
vn -0.8070 -0.1172 -0.5788
vn -0.2447 0.4964 0.8329
vn -0.3782 0.7702 0.5137
vn 0.8070 -0.1172 0.5788
vn 0.9585 0.0499 0.2808
vn 0.9888 -0.0000 0.1492
vn -0.9876 -0.0000 0.1570
vn 0.3287 0.6706 0.6650
vn 0.8349 -0.0000 0.5503
vn -0.8091 -0.1172 0.5759
vn 0.8091 -0.1172 -0.5759
vn -0.9530 0.0537 0.2983
vn -0.1457 0.9257 0.3490
vn -0.2807 0.8829 0.3765
vn 0.0014 0.6107 -0.7919
vn 0.0014 0.6107 -0.7918
vn -0.9548 -0.0000 0.2974
vn 0.0014 0.6106 -0.7919
vn 0.4409 0.7437 0.5025
vn 0.8235 0.2929 0.4858
vn 0.3191 -0.8336 0.4509
vn 0.6478 -0.1677 0.7431
vn -0.0017 0.3167 0.9485
vn -0.0006 0.9365 0.3507
vn -1.0000 -0.0000 -0.0017
vn -0.0014 -0.6106 0.7919
vn -0.0014 -0.6107 0.7919
vn 0.0002 -0.9926 -0.1217
vn -0.8638 -0.1655 -0.4758
vn -0.2297 0.7771 -0.5860
vn 0.7761 -0.3024 -0.5534
vn -0.3207 -0.8336 0.4498
vn -0.9466 -0.1952 0.2567
vn 0.5392 0.1850 0.8216
vn -0.8764 0.4816 -0.0016
vn 0.8497 -0.1937 -0.4904
vn 0.8976 0.1391 0.4183
vn -0.7741 -0.3024 -0.5562
vn -0.3160 0.8488 0.4238
vn 0.4556 0.4123 0.7890
vn -0.4747 0.4271 0.7696
vn -0.5603 0.2122 0.8007
vn 0.8226 0.4923 0.2846
vn 0.2371 0.7578 -0.6079
vn -0.9356 0.3530 -0.0017
vn -0.9998 -0.0000 -0.0209
vn 0.4191 -0.8567 0.3007
vn -0.8146 -0.0000 0.5800
vn -0.1894 -0.9725 -0.1358
vn -0.2682 -0.8492 -0.4550
vn -0.5306 -0.8458 0.0546
vn 0.3417 -0.9073 0.2451
vn 0.3571 -0.9277 0.1086
vn 0.5304 -0.8458 0.0565
vn 0.2699 -0.8492 -0.4540
vn -0.3426 -0.9073 0.2439
vn 0.1958 -0.9707 -0.1394
vn -0.3539 -0.9282 0.1150
vn 0.2619 0.8896 0.3742
vn -0.0347 0.8664 0.4982
vt 0.131913 0.425985
vt 0.000352 0.443671
vt 0.003553 0.366331
vt 0.100528 0.580155
vt 0.000352 0.579025
vt 0.098179 0.521564
vt 0.828291 0.144713
vt 0.770640 0.180603
vt 0.768962 0.073380
vt 0.612444 0.181482
vt 0.687034 0.156307
vt 0.691754 0.187072
vt 0.465502 0.568284
vt 0.481847 0.448035
vt 0.519642 0.496880
vt 0.790736 0.509070
vt 0.729937 0.463636
vt 0.790546 0.448977
vt 0.721642 0.647804
vt 0.793303 0.588120
vt 0.798275 0.721168
vt 0.610281 0.206922
vt 0.675864 0.268125
vt 0.607198 0.228004
vt 0.017933 0.767453
vt 0.089160 0.707601
vt 0.095083 0.791714
vt 0.084793 0.304895
vt 0.000352 0.245129
vt 0.082641 0.247087
vt 0.345251 0.692524
vt 0.293991 0.736886
vt 0.293991 0.692524
vt 0.572755 0.206079
vt 0.585311 0.229488
vt 0.573662 0.229542
vt 0.398562 0.651868
vt 0.466640 0.623056
vt 0.467209 0.650441
vt 0.565512 0.064585
vt 0.585041 0.180284
vt 0.571492 0.180793
vt 0.910467 0.305298
vt 0.883075 0.144713
vt 0.910467 0.144713
vt 0.208570 0.519584
vt 0.190857 0.432535
vt 0.210708 0.434476
vt 0.395700 0.464819
vt 0.244981 0.437169
vt 0.396152 0.364485
vt 0.479877 0.157713
vt 0.558241 0.182144
vt 0.475262 0.189532
vt 0.463378 0.792628
vt 0.482946 0.672862
vt 0.513815 0.756986
vt 0.482388 0.228835
vt 0.562313 0.229365
vt 0.496784 0.270680
vt 0.389765 0.287641
vt 0.287581 0.235873
vt 0.374210 0.214710
vt 0.855683 0.305298
vt 0.855683 0.144713
vt 0.995510 0.180603
vt 0.937859 0.144713
vt 0.999648 0.070405
vt 0.792740 0.843715
vt 0.915762 0.826745
vt 0.915762 0.848926
vt 0.597434 0.206023
vt 0.596775 0.229039
vt 0.397424 0.597096
vt 0.466071 0.595670
vt 0.602358 0.064769
vt 0.598686 0.180511
vt 0.155293 0.513356
vt 0.169951 0.430344
vt 0.143994 0.182902
vt 0.095506 0.009029
vt 0.128462 0.005672
vt 0.323332 0.136226
vt 0.247871 0.056213
vt 0.560239 0.206883
vt 0.585108 0.205803
vt 0.203560 0.178636
vt 0.160598 0.002841
vt 0.193685 0.000352
vt 0.021699 0.166181
vt 0.031933 0.837962
vt 0.093260 0.853325
vt 0.717235 0.535740
vt 0.686615 0.227321
vt 0.293991 0.648163
vt 0.325435 0.520718
vt 0.627531 0.311985
vt 0.607028 0.313775
vt 0.518121 0.302351
vt 0.545369 0.312031
vt 0.293279 0.296202
vt 0.792740 0.871106
vt 0.915762 0.893287
vt 0.792740 0.898498
vt 0.587090 0.314348
vt 0.567255 0.313859
vt 0.654933 0.301015
vt 0.704202 0.720654
vt 0.795336 0.778609
vt 0.013257 0.652125
vt 0.001090 0.306643
vt 0.155827 0.717297
vt 0.182504 0.580027
vt 0.182802 0.718075
vt 0.850415 0.780041
vt 0.878179 0.721669
vt 0.877924 0.780227
vt 0.848463 0.586316
vt 0.873951 0.507564
vt 0.875878 0.585644
vt 0.149596 0.854913
vt 0.179288 0.795779
vt 0.177626 0.855683
vt 0.254539 0.828238
vt 0.276450 0.812581
vt 0.254526 0.829002
vt 0.957525 0.035378
vt 0.874674 0.092173
vt 0.936464 0.017865
vt 0.507126 0.797528
vt 0.584764 0.824920
vt 0.507126 0.824920
vt 0.567114 0.769650
vt 0.603862 0.733482
vt 0.593764 0.775982
vt 0.385944 0.575501
vt 0.387979 0.602893
vt 0.385944 0.602893
vt 0.285480 0.748011
vt 0.323784 0.790965
vt 0.279948 0.850272
vt 0.151573 0.794644
vt 0.851229 0.721682
vt 0.846408 0.508010
vt 0.873347 0.448266
vt 0.574705 0.552849
vt 0.595714 0.505763
vt 0.601827 0.549016
vt 0.870411 0.109682
vt 0.832141 0.020833
vt 0.891470 0.092166
vt 0.155258 0.580320
vt 0.182191 0.520718
vt 0.127922 0.580984
vt 0.129300 0.716282
vt 0.824545 0.721557
vt 0.822908 0.779561
vt 0.818702 0.508510
vt 0.821128 0.587137
vt 0.123613 0.793292
vt 0.121515 0.854097
vt 0.377839 0.602893
vt 0.379819 0.575969
vt 0.379819 0.603361
vt 0.916797 0.127200
vt 0.978587 0.052892
vt 0.385944 0.520718
vt 0.387979 0.548110
vt 0.385944 0.548110
vt 0.550563 0.720818
vt 0.540465 0.763318
vt 0.382503 0.630285
vt 0.380522 0.603361
vt 0.382503 0.602893
vt 0.507126 0.852312
vt 0.584764 0.879704
vt 0.507126 0.879704
vt 0.818081 0.448834
vt 0.541469 0.513429
vt 0.547583 0.556683
vt 0.790022 0.055864
vt 0.849351 0.127198
vt 0.127005 0.521004
vt 0.767187 0.395958
vt 0.529828 0.381296
vt 0.645269 0.002642
vt 0.621419 0.066293
vt 0.396855 0.156399
vt 0.407102 0.244012
vt 0.761756 0.238525
vt 0.584227 0.000352
vt 0.583955 0.064322
vt 0.587488 0.379261
vt 0.523116 0.002193
vt 0.547069 0.065945
vt 0.558620 0.379887
vt 0.644988 0.380155
vt 0.614475 0.000959
vt 0.768259 0.153345
vt 0.411772 0.397427
vt 0.265203 0.692669
vt 0.279245 0.658443
vt 0.279245 0.692669
vt 0.279948 0.658298
vt 0.279245 0.726896
vt 0.265203 0.737031
vt 0.718244 0.874478
vt 0.704202 0.857365
vt 0.718244 0.852297
vt 0.792037 0.901870
vt 0.718244 0.918840
vt 0.718244 0.896659
vt 0.210691 0.692669
vt 0.265203 0.648308
vt 0.792037 0.874478
vt 0.792037 0.847086
vt 0.210691 0.747453
vt 0.034578 0.874180
vt 0.000352 0.891293
vt 0.000352 0.874180
vt 0.034578 0.908406
vt 0.000352 0.925519
vt 0.000352 0.908406
vt 0.068804 0.908406
vt 0.034578 0.925519
vt 0.068804 0.874180
vt 0.034578 0.891293
vt 0.915762 0.871106
vt 0.929804 0.888219
vt 0.704202 0.908704
vt 0.704202 0.891591
vt 0.279948 0.726751
vt 0.279948 0.692524
vt 0.929804 0.836880
vt 0.929804 0.853993
vt 0.424247 0.852312
vt 0.396855 0.824920
vt 0.424247 0.824920
vt 0.823746 0.388177
vt 0.796354 0.415569
vt 0.796354 0.388177
vt 0.395230 0.520718
vt 0.396152 0.548109
vt 0.395230 0.548109
vt 0.388769 0.575503
vt 0.388682 0.548223
vt 0.388769 0.548111
vt 0.424247 0.957808
vt 0.396855 0.930417
vt 0.424247 0.930417
vt 0.878530 0.388177
vt 0.851138 0.415569
vt 0.851138 0.388177
vt 0.878530 0.333393
vt 0.851138 0.360785
vt 0.851138 0.333393
vt 0.479031 0.957808
vt 0.451639 0.930417
vt 0.479031 0.930417
vt 0.382503 0.575501
vt 0.380522 0.548577
vt 0.382503 0.548109
vt 0.377136 0.575501
vt 0.345954 0.548110
vt 0.377136 0.548110
vt 0.385241 0.630285
vt 0.383206 0.602893
vt 0.385241 0.602893
vt 0.377839 0.548109
vt 0.379819 0.521186
vt 0.379819 0.548577
vt 0.301872 0.866693
vt 0.323783 0.882350
vt 0.323797 0.883114
vt 0.385241 0.575501
vt 0.383206 0.548110
vt 0.385241 0.548110
vt 0.210691 0.861080
vt 0.276451 0.903967
vt 0.254526 0.920387
vt 0.377136 0.630285
vt 0.345954 0.602893
vt 0.377136 0.602893
vt 0.216223 0.963341
vt 0.240714 0.944041
vt 0.479031 0.824920
vt 0.451639 0.797528
vt 0.479031 0.797528
vt 0.796354 0.333393
vt 0.768962 0.360785
vt 0.768962 0.333393
vt 0.768962 0.415569
vt 0.768962 0.388177
vt 0.396855 0.797528
vt 0.424247 0.797528
vt 0.380522 0.575969
vt 0.377839 0.630285
vt 0.379819 0.630753
vt 0.209884 0.520718
vt 0.209904 0.585022
vt 0.853201 0.003317
vt 0.912530 0.074651
vt 0.622836 0.501929
vt 0.703499 0.561293
vt 0.901061 0.448035
vt 0.901652 0.512350
vt 0.905414 0.716409
vt 0.903288 0.585083
vt 0.207229 0.791473
vt 0.209988 0.718663
vt 0.345708 0.807386
vt 0.703499 0.757156
vt 0.611537 0.796825
vt 0.853612 0.074660
vt 0.915402 0.000352
vt 0.205589 0.856363
vt 0.905414 0.780252
vt 0.451639 0.824920
vt 0.796354 0.306001
vt 0.768962 0.306001
vt 0.383206 0.520718
vt 0.385241 0.520718
vt 0.345954 0.520718
vt 0.377136 0.520718
vt 0.878530 0.306001
vt 0.851138 0.306001
vt 0.451639 0.957808
vt 0.823746 0.306001
vt 0.367878 0.705953
vt 0.346413 0.631788
vt 0.368337 0.706753
vt 0.929804 0.871106
vt 0.068804 0.891293
vt 0.718244 0.830117
vt 0.736116 0.780955
vt 0.704202 0.840252
vt 0.616300 0.379291
vt 0.387979 0.575501
vt 0.584764 0.852312
vt 0.173254 0.181239
vt 0.181750 0.517313
vt 0.397993 0.624482
vt 0.937859 0.305298
vt 0.345954 0.722374
vt 0.346413 0.723173
vt 0.823746 0.333393
vt 0.345708 0.898771
vt 0.302382 0.963196
vt 0.377839 0.575501
vt 0.380522 0.521186
vt 0.382503 0.520718
vt 0.394527 0.548111
vt 0.394385 0.520718
vt 0.394527 0.520718
vt 0.388682 0.520830
vt 0.388769 0.520718
vt 0.823746 0.415569
vt 0.396855 0.852312
vt 0.154521 0.520829
vt 0.811082 0.038349
vt 0.568591 0.509596
vt 0.845724 0.448561
vt 0.577212 0.727150
vt 0.895736 0.109687
vt 0.232615 0.844659
vt 0.396152 0.575501
vt 0.395230 0.575501
vt 0.506423 0.930417
vt 0.479031 0.852312
vt 0.506423 0.852312
vt 0.796354 0.360785
vt 0.506423 0.824920
vt 0.506423 0.797528
vt 0.345954 0.575501
vt 0.383206 0.575501
vt 0.506423 0.957808
vt 0.878530 0.360785
vt 0.394527 0.575504
vt 0.394385 0.548111
vt 0.704202 0.874478
vt 0.929804 0.905333
vt 0.915762 0.915468
vt 0.068804 0.857067
vt 0.034578 0.857067
vt 0.000352 0.857067
vt 0.553994 0.000762
vt 0.584764 0.907096
vt 0.507126 0.907096
vt 0.387979 0.630285
vt 0.385944 0.630285
vt 0.792740 0.964870
vt 0.883075 0.305298
vt 0.236016 0.520014
vt 0.435672 0.706043
vt 0.640954 0.824920
vt 0.668345 0.852312
vt 0.640954 0.852312
vt 0.640251 0.824920
vt 0.612859 0.797528
vt 0.640251 0.797528
vt 0.612859 0.824920
vt 0.585467 0.797528
vt 0.612859 0.903025
vt 0.585467 0.824920
vt 0.640251 0.903025
vt 0.640954 0.797528
vt 0.668345 0.824920
vt 0.668345 0.797528
vt 0.695737 0.824920
vt 0.695737 0.852312
vt 0.389472 0.548110
vt 0.389558 0.520830
vt 0.389558 0.548222
vt 0.390963 0.741097
vt 0.369499 0.815260
vt 0.369040 0.816060
vt 0.389472 0.575501
vt 0.389558 0.575614
vt 0.391887 0.548109
vt 0.392029 0.575500
vt 0.391887 0.575500
vt 0.391184 0.548109
vt 0.390262 0.520718
vt 0.391184 0.520718
vt 0.391184 0.575501
vt 0.390262 0.548109
vt 0.369040 0.724676
vt 0.391422 0.740297
vt 0.391887 0.520718
vt 0.392029 0.548109
vt 0.127788 0.503812
vt 0.828291 0.305298
vt 0.396855 0.569710
vt 0.719281 0.591437
vt 0.013223 0.710233
vt 0.345251 0.747308
vt 0.792740 0.780955
vt 0.233125 0.748156
vt 0.584764 0.797528
vt 0.309971 0.767311
vt 0.387979 0.520718
vt 0.380522 0.630753
vt 0.728002 0.447332
vt 0.452156 0.447332
vt 0.730832 0.086307
vt 0.435040 0.086895
vt 0.736066 0.971399
vt 0.229207 0.520718
vt 0.068804 0.925519
vt 0.396152 0.520718
vt 0.388682 0.575616
vt 0.396855 0.957808
vt 0.878530 0.415569
vt 0.383206 0.630285
vt 0.377839 0.520718
vt 0.345954 0.630285
vt 0.345954 0.630988
vt 0.394385 0.575504
vt 0.585467 0.903025
vt 0.695737 0.797528
vt 0.389472 0.520718
vt 0.390262 0.575501
vt 0.369499 0.723877
vt 0.392029 0.520718
s 1
usemtl Material.001
f 50/1/1 7/2/1 42/3/1
f 82/4/2 7/5/2 67/6/2
f 76/7/3 5/8/3 70/9/3
f 40/10/4 4/11/5 31/12/6
f 78/13/7 3/14/7 69/15/7
f 80/16/8 1/17/8 68/18/8
f 44/19/9 71/20/10 81/21/11
f 27/22/12 43/23/13 49/24/14
f 34/25/15 72/26/16 79/27/17
f 28/28/18 34/29/19 39/30/19
f 28/31/20 106/32/21 102/33/21
f 199/34/22 45/35/23 205/36/23
f 198/37/24 73/38/25 207/39/26
f 201/40/27 36/41/28 202/42/28
f 149/43/29 74/44/29 159/45/29
f 200/46/30 46/47/30 204/48/30
f 5/49/31 47/50/31 44/51/31
f 2/52/32 37/53/33 33/54/34
f 1/55/35 75/56/35 68/57/35
f 9/58/36 48/59/37 41/60/38
f 12/61/39 38/62/39 32/63/39
f 200/64/29 76/7/29 206/65/29
f 7/66/40 77/67/40 67/68/40
f 156/69/41 103/70/41 163/71/41
f 153/72/22 49/24/14 157/73/23
f 152/74/25 78/13/25 158/75/25
f 150/76/27 40/10/4 154/77/28
f 149/78/30 50/1/30 156/79/30
f 154/77/28 27/22/12 153/72/22
f 155/80/42 26/81/43 152/82/44
f 1/83/45 38/62/45 22/84/45
f 33/54/34 23/85/46 9/58/36
f 202/42/28 17/86/22 199/34/22
f 203/87/47 14/88/44 198/89/48
f 39/30/49 3/90/49 26/81/49
f 3/91/50 79/27/50 69/92/50
f 71/20/10 32/93/51 80/16/51
f 40/10/4 11/94/52 27/22/12
f 28/31/20 103/95/53 50/96/54
f 157/73/23 25/97/55 151/98/56
f 6/99/57 48/59/37 21/100/58
f 44/51/59 24/101/60 12/61/39
f 46/102/41 211/103/41 204/104/41
f 205/36/23 13/105/56 197/106/56
f 49/24/14 8/107/61 25/97/55
f 5/108/62 81/21/62 70/109/62
f 72/26/16 42/110/63 82/4/64
f 50/1/65 10/111/66 28/28/18
f 56/112/67 142/113/68 134/114/69
f 54/115/70 141/116/70 132/117/70
f 55/118/71 140/119/72 133/120/73
f 53/121/74 139/122/74 131/123/74
f 180/124/72 117/125/75 191/126/72
f 52/127/76 137/128/76 58/129/76
f 78/130/77 169/131/77 158/132/77
f 51/133/78 135/134/79 57/135/80
f 89/136/81 220/137/81 209/138/81
f 93/139/75 148/140/75 138/141/75
f 63/142/75 134/114/69 139/122/75
f 65/143/82 133/120/73 141/116/83
f 64/144/84 57/145/84 140/119/84
f 62/146/78 131/147/78 138/148/85
f 60/149/86 132/150/86 136/151/86
f 66/152/87 58/153/87 142/113/87
f 72/26/88 187/154/89 179/155/90
f 70/109/70 186/156/70 177/157/70
f 71/20/71 185/158/72 178/159/71
f 69/92/74 184/160/74 176/161/74
f 137/162/75 122/163/75 147/164/75
f 67/68/76 182/165/76 188/166/76
f 92/167/81 171/168/81 160/169/81
f 68/57/91 180/170/92 175/171/78
f 91/172/72 146/173/72 136/174/72
f 73/175/77 218/176/77 207/177/77
f 79/27/93 179/155/90 184/160/75
f 81/21/82 178/159/71 186/156/82
f 80/16/84 175/178/84 185/158/84
f 78/13/94 176/179/95 183/180/96
f 76/7/86 177/181/86 181/182/86
f 82/4/87 188/183/87 187/154/87
f 97/184/97 8/107/97 43/23/97
f 91/185/98 6/99/98 21/100/98
f 93/186/99 4/11/99 30/187/99
f 95/188/100 2/52/100 33/54/100
f 41/60/101 86/189/102 9/58/103
f 31/12/104 87/190/105 11/94/104
f 201/40/106 88/191/106 16/192/106
f 151/98/107 89/193/107 13/105/107
f 2/52/108 90/194/108 20/195/108
f 209/196/107 21/100/107 197/106/107
f 8/107/109 92/197/109 25/97/109
f 161/198/106 30/187/106 150/76/106
f 4/11/110 94/199/110 31/12/110
f 86/189/102 33/54/103 9/58/103
f 6/99/111 96/200/111 41/60/111
f 87/190/105 43/23/112 11/94/104
f 99/201/113 109/202/113 18/203/113
f 102/33/114 111/204/114 103/95/114
f 99/201/113 113/205/113 105/206/113
f 104/207/115 165/208/115 162/209/115
f 203/210/116 105/211/117 210/212/118
f 24/213/119 101/214/120 99/201/121
f 35/215/118 162/209/118 155/216/122
f 24/213/119 105/206/121 38/217/121
f 212/218/123 112/219/123 213/220/123
f 164/221/123 114/222/123 165/223/123
f 166/224/123 110/225/123 164/221/123
f 214/226/123 107/227/123 212/218/123
f 100/228/124 214/229/124 211/103/124
f 210/212/115 113/230/115 213/231/115
f 102/33/114 114/232/114 110/233/114
f 163/71/124 111/234/124 166/235/124
f 167/236/125 148/237/78 174/238/78
f 215/239/126 146/240/126 222/241/126
f 196/242/127 225/243/127 189/244/127
f 222/245/128 240/246/72 215/247/72
f 169/248/78 194/249/125 196/250/129
f 217/251/126 192/252/126 224/253/126
f 170/254/126 190/255/126 195/256/126
f 218/257/78 189/258/78 223/259/129
f 60/260/72 192/261/72 181/262/72
f 88/263/130 172/264/130 161/265/130
f 76/266/131 217/267/131 206/268/131
f 182/269/75 121/270/75 193/271/75
f 62/272/75 194/273/75 183/274/75
f 74/275/131 170/276/131 159/277/131
f 135/278/72 118/279/72 145/280/72
f 90/281/130 219/282/130 208/283/130
f 90/284/72 145/280/72 127/285/75
f 221/286/78 125/287/78 219/288/78
f 173/289/126 126/290/126 171/291/126
f 222/241/126 128/292/126 220/293/126
f 174/238/78 130/294/78 172/295/78
f 136/174/72 120/296/72 60/260/72
f 92/297/75 147/164/75 129/298/75
f 142/113/132 98/299/132 97/300/132
f 136/151/86 85/301/86 91/302/86
f 138/148/85 84/303/133 93/304/134
f 140/119/135 83/305/135 95/306/135
f 96/307/136 133/120/73 86/308/137
f 94/309/75 134/114/69 87/310/138
f 138/141/75 124/311/75 62/272/75
f 57/135/80 90/312/139 83/313/140
f 58/129/76 92/314/76 98/315/76
f 84/316/141 139/122/141 94/309/141
f 133/120/73 95/306/72 86/308/137
f 85/317/142 141/116/142 96/307/142
f 134/114/69 97/300/143 87/310/138
f 143/318/78 172/295/78 125/287/78
f 147/319/126 171/291/126 129/320/126
f 159/277/131 121/321/131 77/322/131
f 161/265/130 130/323/130 93/324/130
f 121/325/126 195/256/126 193/326/126
f 115/327/78 196/250/129 189/258/78
f 122/328/126 173/289/126 147/319/126
f 216/329/72 239/330/72 230/331/72
f 100/228/124 166/235/124 108/332/124
f 108/333/123 164/221/123 107/227/123
f 107/227/123 165/223/123 112/219/123
f 155/216/122 106/334/144 39/335/145
f 162/209/115 114/336/115 106/334/115
f 88/191/106 150/76/106 16/192/106
f 25/97/107 160/337/107 151/98/107
f 160/169/81 126/338/81 89/136/81
f 158/132/77 115/339/77 73/175/77
f 45/35/23 151/98/56 13/105/56
f 35/340/44 152/82/44 14/88/44
f 36/41/28 153/72/22 17/86/22
f 15/341/30 156/79/30 46/47/30
f 16/192/27 154/77/28 36/41/28
f 14/342/25 158/75/25 73/38/25
f 17/86/22 157/73/23 45/35/23
f 46/102/41 163/71/41 100/228/41
f 29/343/29 159/45/29 77/67/29
f 221/344/72 230/331/72 233/345/72
f 193/326/126 168/346/126 122/328/126
f 183/274/75 123/347/72 78/348/72
f 61/349/75 193/271/75 122/163/75
f 181/262/72 119/350/72 76/351/72
f 190/352/146 237/353/147 195/354/147
f 215/247/72 242/355/72 224/356/72
f 224/253/126 120/357/126 215/239/126
f 196/250/129 124/358/125 167/236/125
f 187/154/87 52/359/87 66/152/87
f 181/182/86 54/360/86 60/149/86
f 183/180/96 53/361/78 62/146/78
f 185/158/84 51/362/84 64/144/84
f 186/156/82 55/118/71 65/143/82
f 184/160/75 56/112/67 63/142/75
f 175/171/78 59/363/78 51/133/78
f 188/166/76 61/364/76 52/127/76
f 176/161/74 63/142/74 53/121/74
f 178/159/71 64/144/72 55/118/71
f 177/157/70 65/143/70 54/115/70
f 179/155/90 66/152/148 56/112/67
f 59/365/72 191/126/72 118/279/72
f 189/244/127 239/366/127 223/367/127
f 191/368/125 216/369/125 118/370/125
f 144/371/126 220/293/126 126/290/126
f 145/372/78 219/288/78 127/373/78
f 208/283/130 125/374/130 88/263/130
f 206/268/131 116/375/131 74/275/131
f 117/376/78 223/259/129 191/368/125
f 116/377/126 224/253/126 190/255/126
f 118/370/125 221/286/78 145/372/78
f 224/378/149 227/379/146 190/352/146
f 104/207/115 213/231/115 112/380/115
f 211/103/124 109/381/124 101/382/124
f 109/383/123 212/218/123 18/384/123
f 18/384/123 213/220/123 113/385/123
f 35/215/118 210/212/118 104/207/118
f 89/193/107 197/106/107 13/105/107
f 20/195/106 208/386/106 201/40/106
f 207/177/77 117/387/77 75/388/77
f 209/138/81 128/389/81 91/390/81
f 48/59/37 197/106/56 21/100/58
f 204/104/41 101/382/41 47/391/41
f 38/62/150 198/89/48 22/84/151
f 37/53/33 199/34/22 23/85/46
f 15/392/29 206/65/29 74/44/29
f 19/393/30 204/48/30 47/50/30
f 20/195/152 202/42/28 37/53/33
f 22/394/153 207/39/26 75/56/154
f 23/85/46 205/36/23 48/59/37
f 229/395/126 232/396/126 234/397/126
f 230/398/125 231/399/78 233/400/78
f 226/401/125 236/402/78 231/399/78
f 225/403/155 235/404/125 226/401/125
f 239/405/155 226/401/125 230/398/125
f 237/406/126 228/407/126 229/395/126
f 227/408/126 240/409/126 228/407/126
f 228/407/126 241/410/126 232/396/126
f 168/411/75 237/412/75 229/413/156
f 167/414/75 238/415/75 196/416/75
f 173/417/75 229/413/156 234/418/75
f 144/419/157 241/420/158 222/421/158
f 143/422/159 236/423/159 174/424/159
f 221/425/159 231/426/159 143/422/159
f 174/427/75 235/428/75 167/414/75
f 173/429/157 232/430/157 144/419/157
f 50/1/160 29/431/160 7/2/160
f 82/4/161 42/110/161 7/5/161
f 76/7/162 19/432/162 5/8/162
f 40/10/4 30/187/163 4/11/5
f 78/13/164 26/433/164 3/14/164
f 80/16/165 32/93/165 1/17/165
f 44/19/9 12/434/51 71/20/10
f 27/22/12 11/94/52 43/23/13
f 34/25/15 10/435/166 72/26/16
f 28/28/18 10/111/66 34/29/19
f 28/31/20 39/436/21 106/32/21
f 199/34/22 17/86/22 45/35/23
f 198/37/24 14/342/25 73/38/25
f 201/40/27 16/192/27 36/41/28
f 149/43/29 15/392/29 74/44/29
f 200/46/30 15/341/30 46/47/30
f 5/49/167 19/393/167 47/50/167
f 2/52/32 20/195/152 37/53/33
f 1/55/168 22/394/168 75/56/168
f 9/58/36 23/85/46 48/59/37
f 12/61/39 24/101/60 38/62/39
f 200/64/29 19/432/29 76/7/29
f 7/66/169 29/343/169 77/67/169
f 156/69/41 50/437/41 103/70/41
f 153/72/22 27/22/12 49/24/14
f 152/74/25 26/433/25 78/13/25
f 150/76/27 30/187/163 40/10/4
f 149/78/30 29/431/30 50/1/30
f 154/77/28 40/10/4 27/22/12
f 155/80/42 39/30/170 26/81/43
f 1/83/171 32/63/171 38/62/171
f 33/54/34 37/53/33 23/85/46
f 202/42/28 36/41/28 17/86/22
f 203/87/47 35/340/44 14/88/44
f 39/30/172 34/29/172 3/90/172
f 3/91/173 34/25/173 79/27/173
f 71/20/10 12/434/51 32/93/51
f 40/10/4 31/12/6 11/94/52
f 28/31/20 102/33/21 103/95/53
f 157/73/23 49/24/14 25/97/55
f 6/99/57 41/60/38 48/59/37
f 44/51/59 47/50/174 24/101/60
f 46/102/41 100/228/41 211/103/41
f 205/36/23 45/35/23 13/105/56
f 49/24/14 43/23/13 8/107/61
f 5/108/175 44/19/175 81/21/175
f 72/26/16 10/435/166 42/110/63
f 50/1/65 42/3/176 10/111/66
f 56/112/67 66/152/148 142/113/68
f 54/115/70 65/143/70 141/116/70
f 55/118/71 64/144/72 140/119/72
f 53/121/74 63/142/74 139/122/74
f 180/124/72 75/438/75 117/125/75
f 52/127/76 61/364/76 137/128/76
f 78/130/77 123/439/77 169/131/77
f 51/133/78 59/363/78 135/134/79
f 89/136/81 126/338/81 220/137/81
f 93/139/75 130/440/72 148/140/75
f 63/142/75 56/112/67 134/114/69
f 65/143/82 55/118/71 133/120/73
f 64/144/84 51/362/84 57/145/84
f 62/146/78 53/361/78 131/147/78
f 60/149/86 54/360/86 132/150/86
f 66/152/87 52/359/87 58/153/87
f 72/26/88 82/4/177 187/154/89
f 70/109/70 81/21/70 186/156/70
f 71/20/71 80/16/72 185/158/72
f 69/92/74 79/27/74 184/160/74
f 137/162/75 61/349/75 122/163/75
f 67/68/76 77/67/76 182/165/76
f 92/167/81 129/441/81 171/168/81
f 68/57/91 75/56/178 180/170/92
f 91/172/72 128/442/72 146/173/72
f 73/175/77 115/339/77 218/176/77
f 79/27/93 72/26/88 179/155/90
f 81/21/82 71/20/71 178/159/71
f 80/16/84 68/18/84 175/178/84
f 78/13/94 69/15/179 176/179/95
f 76/7/86 70/9/86 177/181/86
f 82/4/87 67/6/87 188/183/87
f 97/184/180 98/443/180 8/107/180
f 91/185/181 85/444/181 6/99/181
f 93/186/182 84/445/182 4/11/182
f 95/188/183 83/446/183 2/52/183
f 41/60/101 96/200/184 86/189/102
f 31/12/104 94/199/104 87/190/105
f 201/40/106 208/386/106 88/191/106
f 151/98/107 160/337/107 89/193/107
f 2/52/185 83/446/185 90/194/185
f 209/196/107 91/185/107 21/100/107
f 8/107/186 98/443/186 92/197/186
f 161/198/106 93/186/106 30/187/106
f 4/11/187 84/445/187 94/199/187
f 86/189/102 95/188/103 33/54/103
f 6/99/188 85/444/188 96/200/188
f 87/190/105 97/184/189 43/23/112
f 99/201/113 101/214/113 109/202/113
f 102/33/114 110/233/114 111/204/114
f 99/201/113 18/203/113 113/205/113
f 104/207/115 112/380/115 165/208/115
f 203/210/116 38/447/190 105/211/117
f 24/213/119 47/448/191 101/214/120
f 35/215/118 104/207/118 162/209/118
f 24/213/119 99/201/121 105/206/121
f 212/218/123 107/227/123 112/219/123
f 164/221/123 110/225/123 114/222/123
f 166/224/123 111/449/123 110/225/123
f 214/226/123 108/333/123 107/227/123
f 100/228/124 108/332/124 214/229/124
f 210/212/115 105/211/115 113/230/115
f 102/33/114 106/32/114 114/232/114
f 163/71/124 103/70/124 111/234/124
f 167/236/125 124/358/125 148/237/78
f 215/239/126 120/357/126 146/240/126
f 196/242/127 238/450/127 225/243/127
f 222/245/128 241/451/128 240/246/72
f 169/248/78 123/452/78 194/249/125
f 217/251/126 119/453/126 192/252/126
f 170/254/126 116/377/126 190/255/126
f 218/257/78 115/327/78 189/258/78
f 60/260/72 120/296/72 192/261/72
f 88/263/130 125/374/130 172/264/130
f 76/266/131 119/454/131 217/267/131
f 182/269/75 77/455/75 121/270/75
f 62/272/75 124/311/75 194/273/75
f 74/275/131 116/375/131 170/276/131
f 135/278/72 59/365/72 118/279/72
f 90/281/130 127/456/130 219/282/130
f 90/284/72 135/278/72 145/280/72
f 221/286/78 143/318/78 125/287/78
f 173/289/126 144/371/126 126/290/126
f 222/241/126 146/240/126 128/292/126
f 174/238/78 148/237/78 130/294/78
f 136/174/72 146/173/72 120/296/72
f 92/297/75 137/162/75 147/164/75
f 142/113/87 58/153/87 98/299/87
f 136/151/86 132/150/86 85/301/86
f 138/148/85 131/147/78 84/303/133
f 140/119/84 57/145/84 83/305/84
f 96/307/136 141/116/83 133/120/73
f 94/309/75 139/122/75 134/114/69
f 138/141/75 148/140/75 124/311/75
f 57/135/80 135/134/79 90/312/139
f 58/129/76 137/128/76 92/314/76
f 84/316/74 131/123/74 139/122/74
f 133/120/73 140/119/72 95/306/72
f 85/317/70 132/117/70 141/116/70
f 134/114/69 142/113/68 97/300/143
f 143/318/78 174/238/78 172/295/78
f 147/319/126 173/289/126 171/291/126
f 159/277/131 170/276/131 121/321/131
f 161/265/130 172/264/130 130/323/130
f 121/325/126 170/254/126 195/256/126
f 115/327/78 169/248/78 196/250/129
f 122/328/126 168/346/126 173/289/126
f 216/329/72 223/457/72 239/330/72
f 100/228/124 163/71/124 166/235/124
f 108/333/123 166/224/123 164/221/123
f 107/227/123 164/221/123 165/223/123
f 155/216/122 162/209/118 106/334/144
f 162/209/115 165/208/115 114/336/115
f 88/191/106 161/198/106 150/76/106
f 25/97/107 92/197/107 160/337/107
f 160/169/81 171/168/81 126/338/81
f 158/132/77 169/131/77 115/339/77
f 45/35/23 157/73/23 151/98/56
f 35/340/44 155/80/42 152/82/44
f 36/41/28 154/77/28 153/72/22
f 15/341/30 149/78/30 156/79/30
f 16/192/27 150/76/27 154/77/28
f 14/342/25 152/74/25 158/75/25
f 17/86/22 153/72/22 157/73/23
f 46/102/41 156/69/41 163/71/41
f 29/343/29 149/43/29 159/45/29
f 221/344/72 216/329/72 230/331/72
f 193/326/126 195/256/126 168/346/126
f 183/274/75 194/273/75 123/347/72
f 61/349/75 182/269/75 193/271/75
f 181/262/72 192/261/72 119/350/72
f 190/352/146 227/379/146 237/353/147
f 215/247/72 240/246/72 242/355/72
f 224/253/126 192/252/126 120/357/126
f 196/250/129 194/249/125 124/358/125
f 187/154/87 188/183/87 52/359/87
f 181/182/86 177/181/86 54/360/86
f 183/180/96 176/179/95 53/361/78
f 185/158/84 175/178/84 51/362/84
f 186/156/82 178/159/71 55/118/71
f 184/160/75 179/155/90 56/112/67
f 175/171/78 180/170/92 59/363/78
f 188/166/76 182/165/76 61/364/76
f 176/161/74 184/160/74 63/142/74
f 178/159/71 185/158/72 64/144/72
f 177/157/70 186/156/70 65/143/70
f 179/155/90 187/154/89 66/152/148
f 59/365/72 180/124/72 191/126/72
f 189/244/127 225/243/127 239/366/127
f 191/368/125 223/259/129 216/369/125
f 144/371/126 222/241/126 220/293/126
f 145/372/78 221/286/78 219/288/78
f 208/283/130 219/282/130 125/374/130
f 206/268/131 217/267/131 116/375/131
f 117/376/78 218/257/78 223/259/129
f 116/377/126 217/251/126 224/253/126
f 118/370/125 216/369/125 221/286/78
f 224/378/149 242/458/149 227/379/146
f 104/207/115 210/212/115 213/231/115
f 211/103/124 214/229/124 109/381/124
f 109/383/123 214/226/123 212/218/123
f 18/384/123 212/218/123 213/220/123
f 35/215/118 203/210/116 210/212/118
f 89/193/107 209/196/107 197/106/107
f 20/195/106 90/194/106 208/386/106
f 207/177/77 218/176/77 117/387/77
f 209/138/81 220/137/81 128/389/81
f 48/59/37 205/36/23 197/106/56
f 204/104/41 211/103/41 101/382/41
f 38/62/150 203/87/47 198/89/48
f 37/53/33 202/42/28 199/34/22
f 15/392/29 200/64/29 206/65/29
f 19/393/30 200/46/30 204/48/30
f 20/195/152 201/40/27 202/42/28
f 22/394/153 198/37/24 207/39/26
f 23/85/46 199/34/22 205/36/23
f 229/395/126 228/407/126 232/396/126
f 230/398/125 226/401/125 231/399/78
f 226/401/125 235/404/125 236/402/78
f 225/403/155 238/459/155 235/404/125
f 239/405/155 225/403/155 226/401/125
f 237/406/126 227/408/126 228/407/126
f 227/408/126 242/460/126 240/409/126
f 228/407/126 240/409/126 241/410/126
f 168/411/75 195/461/75 237/412/75
f 167/414/75 235/428/75 238/415/75
f 173/417/75 168/411/75 229/413/156
f 144/419/157 232/430/157 241/420/158
f 143/422/159 231/426/159 236/423/159
f 221/425/159 233/462/159 231/426/159
f 174/427/75 236/463/75 235/428/75
f 173/429/157 234/464/157 232/430/157
